<svg version="1.0" xmlns="http://www.w3.org/2000/svg" width="100%" height="100px" preserveAspectRatio="xMidYMid meet" viewBox="12.48 187.58 278.52 192.35">
<metadata>
Created by potrace 1.10, written by Peter Selinger 2001-2011
</metadata>
<g transform="translate(0.000000,633.000000) scale(0.100000,-0.100000)" fill="#000000" stroke="none">
<path d="M1645 4429 c-33 -17 -72 -43 -87 -57 -31 -29 -98 -137 -128 -206 -11 -28 -26 -46 -35 -46 -24 0 -44 -24 -35 -41 12 -22 20 -96 21 -194 1 -53 6 -93 13 -98 6 -4 -25 -5 -69 -1 -144 14 -449 6 -494 -12 -18 -8 -41 -14 -50 -14 -20 0 -64 -47 -57 -59 5 -8 -28 -159 -35 -164 -2 -2 -62 -31 -132 -65 -70 -35 -144 -77 -165 -96 -20 -18 -74 -61 -119 -95 -48 -36 -80 -67 -77 -75 3 -8 -11 -19 -36 -29 -38 -14 -40 -18 -30 -37 9 -16 8 -25 0 -36 -47 -56 309 -344 535 -434 33 -13 91 -39 130 -57 38 -18 80 -33 92 -33 12 0 57 -11 100 -25 95 -30 126 -32 121 -7 -2 9 -14 19 -28 20 -34 5 -191 72 -325 139 -133 67 -416 245 -499 315 -33 27 -71 54 -84 59 -13 5 -22 15 -19 22 5 16 238 16 788 -2 235 -7 445 -12 468 -9 36 3 40 2 25 -9 -16 -11 -113 -19 -167 -13 -10 1 -59 -4 -109 -10 -93 -12 -184 -7 -653 34 -169 16 -330 17 -316 3 5 -5 73 -13 151 -18 79 -5 146 -12 150 -14 7 -4 137 -17 476 -46 98 -8 139 -7 220 6 54 8 136 20 181 27 60 8 84 16 88 28 4 12 30 19 107 28 57 7 127 19 155 26 29 8 76 17 105 20 102 12 -14 -24 -134 -41 -21 -3 -36 -9 -33 -13 3 -4 -2 -10 -10 -14 -8 -3 -15 -1 -15 5 0 7 -10 8 -27 3 -16 -4 -43 -8 -62 -8 -20 -1 -36 -7 -39 -15 -4 -12 7 -13 60 -8 37 3 69 2 75 -4 6 -6 25 -4 54 6 69 24 199 87 194 94 -2 4 4 7 13 8 46 4 343 85 434 118 138 50 226 104 327 197 46 43 88 78 92 78 5 0 9 7 9 15 0 8 4 15 10 15 5 0 -6 -30 -25 -66 -19 -36 -35 -71 -35 -78 0 -7 -27 -55 -60 -106 -33 -51 -60 -98 -60 -103 0 -11 -151 -166 -159 -165 -3 1 -34 -26 -68 -59 -33 -33 -78 -68 -100 -78 -21 -10 -65 -35 -98 -55 -37 -23 -89 -43 -135 -54 -41 -9 -120 -30 -175 -46 -256 -76 -397 -112 -475 -121 -47 -5 -124 -16 -173 -25 -84 -16 -143 -15 -179 0 -22 10 -38 -22 -17 -35 25 -15 113 -21 160 -10 25 6 104 17 175 26 71 9 169 27 217 41 79 23 112 26 94 8 -14 -14 -214 -55 -342 -70 -151 -18 -183 -24 -151 -32 27 -6 189 15 341 44 157 30 178 38 171 62 -6 19 8 24 239 89 157 43 183 42 35 -2 -233 -70 -279 -86 -230 -80 25 3 90 21 145 39 55 19 137 46 182 60 46 15 94 37 107 49 32 30 126 81 133 73 8 -8 8 -9 -72 -50 -71 -37 -57 -40 18 -4 83 39 137 79 137 102 0 5 -13 -3 -30 -19 -16 -16 -32 -26 -35 -23 -6 5 53 53 65 53 14 1 235 235 251 268 11 20 42 71 69 113 28 42 50 84 50 93 0 9 13 47 29 85 24 61 27 75 18 120 -13 76 -33 109 -61 102 -13 -3 -49 1 -81 9 -31 9 -98 22 -149 30 -50 7 -122 21 -161 29 -38 9 -95 16 -126 16 l-56 0 -16 58 c-8 31 -18 80 -22 109 -6 43 -10 51 -26 50 -18 -1 -19 -7 -14 -57 4 -30 14 -80 22 -110 9 -30 15 -83 14 -117 0 -34 4 -65 9 -68 13 -8 13 -35 0 -35 -5 0 -7 7 -4 15 4 8 1 15 -5 15 -6 0 -11 -9 -11 -20 0 -19 -6 -20 -107 -19 -60 0 -126 4 -148 9 -27 5 4 7 95 5 103 -3 120 -2 70 5 -36 4 -104 8 -153 9 -48 0 -95 5 -105 10 -9 5 -33 16 -52 24 l-35 16 33 0 c17 1 32 5 32 10 0 5 -15 6 -33 1 -22 -5 -75 1 -160 19 -118 24 -126 27 -121 46 4 11 6 51 6 88 -2 63 0 68 18 63 11 -3 29 -8 40 -12 10 -3 37 0 59 6 39 10 70 40 115 110 12 19 29 36 39 38 14 3 17 -5 17 -45 0 -27 7 -58 15 -69 21 -31 106 -64 170 -67 50 -2 57 1 78 27 13 16 29 49 36 73 9 37 15 44 34 43 47 -4 67 0 67 15 0 19 -33 32 -102 41 -29 3 -84 14 -123 24 -87 23 -144 26 -312 16 -96 -6 -133 -5 -133 3 0 6 5 10 11 8 6 -1 37 41 69 93 55 90 62 97 128 133 l71 38 78 -27 c136 -46 199 -109 242 -245 7 -22 20 -39 31 -42 27 -7 26 7 -11 102 -26 69 -39 89 -89 133 -42 38 -79 61 -132 80 -111 41 -125 42 -193 7z m200 -316 c11 -6 52 -16 90 -24 39 -7 71 -13 73 -14 1 -1 -4 -14 -12 -29 -9 -19 -16 -23 -20 -14 -3 7 -3 2 0 -12 3 -15 -2 -33 -11 -45 -10 -12 -15 -14 -12 -5 9 30 -33 49 -54 24 -10 -12 -10 -20 -1 -35 11 -18 9 -19 -29 -19 l-42 0 7 49 c4 33 3 52 -5 57 -8 4 -9 0 -4 -15 9 -28 -9 -27 -23 2 l-11 22 0 -22 c-1 -12 -6 -23 -13 -25 -6 -2 -8 -10 -4 -17 5 -7 14 -10 21 -7 7 2 16 -2 19 -10 7 -18 2 -18 -35 1 -34 18 -49 49 -42 86 3 17 -2 31 -17 44 -20 19 -23 19 -51 3 -16 -10 -37 -15 -47 -12 -10 4 -13 3 -6 -3 7 -5 7 -15 -1 -31 -11 -20 -14 -21 -25 -7 -8 10 -9 15 -1 15 6 0 11 5 11 11 0 5 -5 7 -11 3 -7 -4 -21 -7 -33 -8 -18 -1 -21 -7 -20 -44 1 -31 -1 -40 -10 -33 -20 16 -77 10 -89 -11 -18 -28 -25 -22 -37 37 -11 53 -10 56 12 74 18 16 41 19 122 20 55 1 102 3 104 6 8 8 188 -2 207 -12z m-274 -72 c12 -21 14 -32 6 -40 -18 -18 -25 -13 -20 13 3 13 0 27 -6 30 -6 4 -11 11 -11 17 0 18 15 8 31 -20z m-44 -65 c10 -10 -50 -7 -67 3 -9 7 -2 9 23 7 21 -2 40 -6 44 -10z m413 5 c0 -5 -7 -11 -15 -15 -9 -3 -15 0 -15 9 0 8 7 15 15 15 8 0 15 -4 15 -9z m-530 -42 c0 -6 -4 -7 -10 -4 -5 3 -10 11 -10 16 0 6 5 7 10 4 6 -3 10 -11 10 -16z m723 -89 c3 -11 1 -18 -4 -14 -5 3 -9 12 -9 20 0 20 7 17 13 -6z m72 -69 c28 -1 82 -9 120 -17 39 -8 115 -22 170 -30 55 -7 113 -19 129 -24 16 -6 46 -10 67 -10 33 0 38 -4 48 -31 24 -70 -1 -129 -60 -144 -14 -3 -50 -26 -80 -51 -102 -84 -204 -131 -477 -219 -46 -14 -88 -24 -95 -22 -7 2 13 11 43 20 31 9 99 43 151 76 62 39 128 70 189 90 52 17 96 29 97 27 2 -2 -43 -23 -99 -47 -57 -23 -119 -54 -138 -67 -40 -28 -34 -26 75 22 106 46 175 85 175 99 0 5 3 8 6 4 4 -3 25 6 48 22 22 16 59 37 81 49 46 23 92 68 81 79 -4 4 -24 -2 -44 -15 -79 -48 -221 -114 -298 -138 -46 -14 -118 -47 -165 -76 -46 -28 -98 -60 -116 -70 -18 -11 -101 -41 -185 -68 -188 -59 -388 -93 -583 -97 -223 -6 -885 14 -925 27 -19 6 -68 15 -108 18 l-72 7 77 61 c100 77 221 159 303 204 35 19 70 46 77 60 l13 25 0 -32 c0 -38 14 -47 135 -88 158 -52 241 -61 572 -60 196 0 304 -3 307 -10 3 -5 11 -2 19 7 7 10 49 26 93 37 43 10 122 30 174 44 52 14 125 29 163 33 37 3 67 10 67 15 0 20 -54 18 -156 -6 -60 -14 -147 -34 -194 -44 -47 -11 -98 -22 -115 -26 -24 -6 -28 -5 -18 5 6 7 9 19 6 26 -3 8 0 14 6 14 6 0 11 10 11 22 0 12 5 46 12 74 l12 52 161 -5 c176 -6 189 -10 254 -77 19 -20 44 -36 55 -36 36 0 66 12 66 25 0 9 28 20 76 30 41 10 96 28 122 42 26 14 59 32 75 40 28 15 35 37 16 48 -11 7 -122 -56 -152 -87 -10 -10 -23 -18 -29 -18 -7 0 6 18 27 40 21 22 48 40 59 40 16 0 14 4 -13 24 -38 28 -124 44 -146 26 -10 -9 -21 -7 -46 5 -20 11 -47 15 -73 13 -25 -3 -50 1 -63 10 -13 8 -30 12 -38 8 -10 -4 -14 1 -14 17 0 12 -2 33 -6 47 -6 24 -6 24 7 4 10 -15 25 -21 63 -23z m-925 -37 c92 -3 290 -42 416 -82 60 -19 68 -34 47 -97 -8 -22 -16 -65 -20 -97 -4 -36 -11 -59 -20 -63 -31 -11 -553 -18 -576 -7 -12 5 -56 15 -97 22 -41 6 -126 27 -188 47 l-113 35 5 37 c3 20 8 66 12 102 l6 66 51 17 c29 9 61 19 72 22 20 4 20 4 0 -6 -15 -7 -5 -8 35 -3 160 19 189 21 230 16 25 -3 88 -7 140 -9z m-27 9 c-7 -2 -21 -2 -30 0 -10 3 -4 5 12 5 17 0 24 -2 18 -5z m924 -84 c-11 -17 -37 -27 -37 -13 0 18 22 42 35 38 11 -5 12 -10 2 -25z m144 1 c18 -10 18 -13 4 -40 -8 -16 -15 -36 -15 -45 0 -26 23 -12 42 25 28 55 41 63 88 55 l42 -7 -21 -22 c-12 -12 -21 -27 -21 -33 0 -6 -30 -20 -67 -31 l-67 -21 -44 30 c-55 37 -67 31 -15 -7 53 -40 77 -64 61 -64 -7 0 -34 18 -59 40 -33 28 -46 47 -46 65 0 30 38 61 62 51 9 -3 13 -2 10 4 -8 13 21 13 46 0z m-156 -40 c8 -13 -5 -13 -25 0 -13 8 -13 10 2 10 9 0 20 -4 23 -10z m-1935 -394 c0 -2 -8 -10 -17 -17 -16 -13 -17 -12 -4 4 13 16 21 21 21 13z m1780 -6 c0 -5 -5 -10 -11 -10 -5 0 -7 5 -4 10 3 6 8 10 11 10 2 0 4 -4 4 -10z m-1725 -66 c17 -3 31 -7 33 -9 6 -6 -119 -15 -129 -10 -16 11 23 36 46 29 11 -3 34 -7 50 -10z m-83 -134 c15 -21 53 -58 85 -81 115 -84 140 -105 194 -154 64 -59 30 -39 -101 59 -105 78 -220 185 -220 204 0 22 14 12 42 -28z m353 -246 c17 -13 42 -27 55 -33 14 -5 18 -10 10 -10 -20 -1 -112 52 -130 75 -14 16 -13 16 10 4 14 -7 39 -23 55 -36z m96 -83 c30 -10 95 -39 144 -65 128 -67 100 -56 -185 71 -39 18 -19 15 41 -6z"/>
<path d="M1812 4076 c7 -8 15 -12 17 -11 5 6 -10 25 -20 25 -5 0 -4 -6 3 -14z"/>
<path d="M1607 4326 c-54 -33 -59 -42 -10 -17 23 11 44 25 48 31 9 14 5 13 -38 -14z"/>
<path d="M1875 4281 c-8 -25 3 -49 28 -63 l20 -11 -20 27 c-12 15 -19 35 -16 46 7 25 -4 26 -12 1z"/>
<path d="M1560 3814 c0 -12 7 -27 15 -34 19 -16 19 -3 0 30 -13 24 -14 24 -15 4z"/>
<path d="M2025 3800 c-3 -11 -2 -28 4 -37 9 -16 10 -16 11 4 0 12 3 28 6 37 3 9 1 16 -4 16 -6 0 -13 -9 -17 -20z"/>
<path d="M1745 3730 c-3 -5 1 -10 9 -10 9 0 16 5 16 10 0 6 -4 10 -9 10 -6 0 -13 -4 -16 -10z"/>
<path d="M2648 3427 c-25 -40 -56 -92 -68 -117 -12 -25 -52 -85 -87 -133 -36 -48 -63 -90 -61 -93 3 -2 23 19 45 48 23 29 50 62 61 74 11 12 29 39 40 61 11 22 28 46 38 54 21 17 64 85 69 108 2 9 6 28 10 44 4 15 6 27 4 27 -2 -1 -25 -33 -51 -73z"/>
<path d="M2689 3281 c-27 -26 -49 -54 -49 -61 0 -8 16 5 36 28 50 58 67 66 104 47 36 -19 40 -45 6 -45 -13 0 -29 -7 -36 -15 -18 -21 12 -31 49 -15 16 6 40 10 53 8 18 -2 23 -9 22 -33 0 -16 -4 -39 -8 -50 -6 -15 -2 -13 18 8 14 15 26 36 26 46 0 21 -40 61 -62 61 -9 0 -18 7 -22 15 -5 15 -64 55 -80 55 -5 0 -31 -22 -57 -49z"/>
<path d="M2649 3054 c-26 -7 -52 -21 -59 -29 -16 -20 -7 -19 38 4 50 25 97 32 127 21 35 -13 32 -43 -10 -84 -40 -40 -44 -56 -15 -56 23 0 80 -27 80 -37 0 -4 -14 -22 -31 -39 -32 -33 -32 -33 -16 -71 l16 -38 0 32 c1 22 11 41 37 67 31 31 34 38 24 57 -7 12 -29 28 -51 37 l-38 15 24 29 c34 40 34 85 -1 98 -34 13 -69 12 -125 -6z"/>
</g>
</svg>